<svg xmlns="http://www.w3.org/2000/svg" xmlns:xlink="http://www.w3.org/1999/xlink" viewBox="0 0 2500 1800"><defs><clipPath id="a"><path d="M1084.13,657.2c57.32-77.94,139.53-143.22,236.63-163.29,106.24-22,203.18,31.15,256.34,123.41a256.54,256.54,0,0,1,16.19,33.31c26.07,65.57,29.17,138.29,21.8,208.46-13.09,124.74-40.64,248-78.16,367.91l27.32,10.76c51.91-94.69,108.46-200.32,146.24-301.48,15.62-41.84,30.14-84.43,52.62-123,35.44-60.86,90.72-121.37,163.29-133.41,159.89-26.54,263.94,155.12,278.53,290,9.1,84.16-2.94,169-15.1,252.16l25.12,1.28c6.58.34,14.23,2.38,20.64.87,23.21-60,39.25-122.51,55.24-184.83,30.41-118.52,61.05-239.37,53.87-361.52-3.74-63.7-21.87-130.74-51.55-187.25-46.39-88.36-117-163.3-200.82-217.16-75.34-48.41-162-74.05-248.86-92.54q-5.84-1.25-11.68-2.41c-227-45.09-480.35.82-673.07,130.39q-12.9,8.69-25.47,17.85C969.14,446.36,829.88,639.5,808.25,846c-19.27,184,6.94,375.29,46,554.92a620.19,620.19,0,0,1,124.25-2.39c-26.55-54.49-39.75-126.09-46.64-186.15-7.51-65.5-5.42-132,4.66-197.1C956.41,886.83,1007,762,1084.13,657.2Z" fill="none"/></clipPath></defs><path d="M7.12,1553l211.26-474.31c16.08-34.68,88.65-62,162.55-62H2001.74c73.9,0,146.47,27.29,162.55,62l217.06,468.51c16.27,71-29.48,105.51-126.47,105.51H127.79C30.8,1652.66-7.82,1593,7.12,1553Z" fill="#f2f5f9"/><path d="M2380.45,1566.37c1.54,29.88-13.77,56-40.52,69.54-21.3,10.76-45.91,13.39-69.46,13.47-8.44,0-16.88,0-25.32,0H187.1c-46.38,0-97.15,3.74-138.7-19.71-26.17-14.78-40.18-40.05-37-70.11.49-4.64-10.42-2.75-10.84,1.22-9,85.46,94.22,95.16,157,95.16h2070c47,0,100.31,3.92,138-29,18.5-16.17,27.06-39.18,25.8-63.45-.19-3.82-11-1.54-10.8,2.89Z" fill="#7e889f"/><path d="M17.21,1503.5l215.63-437.4c15.8-32,87.63-57.27,160.9-57.27h1606.8c73.27,0,145.09,25.22,160.89,57.27l215.64,437.4c24.55,49.8-32.52,91.72-128.41,91.72h-2103C49.73,1595.22-7.34,1553.3,17.21,1503.5Z" fill="#f2f5f9"/><path d="M22.28,1503.76Q76.72,1393.36,131.14,1283l74.25-150.61c11.28-22.88,20.92-48.13,34.64-69.71,11.14-17.55,33.47-27.28,52.22-34.07,25.41-9.18,52.46-14,79.37-15.74,8.53-.57,17.06-.67,25.61-.67H1928.17c61.08,0,124-3.73,181.66,20.53,20,8.39,38.75,19.76,48.53,39.59l17.49,35.48q34.14,69.24,68.27,138.48l125.45,254.46c34.33,69.65-65.82,90.52-114.74,91.18-8.08.11-16.18,0-24.26,0H238.92c-30.25,0-60.51.13-90.76,0-30.57-.14-62.46-3.54-90.45-16.66-28.49-13.36-50.47-39.51-35.43-71.48,2.34-5-8.48-4.07-10.14-.53-13,27.73-1.67,53.43,23,69.71,31.26,20.67,72,25.42,108.56,25.6,7.84,0,15.67,0,23.51,0H2177.78c38.22,0,78.73,2.65,116.5-3.67,46.2-7.72,115-38,86.72-95.79-15.37-31.45-30.95-62.79-46.43-94.19L2186,1103.58q-8.54-17.34-17.09-34.67c-9.23-18.74-25.66-30.33-44.38-39-41-19.05-86.68-24.38-131.45-24.38H534q-67.56,0-135.13,0a358.59,358.59,0,0,0-57.24,4.32c-36.53,5.94-85.16,17.37-109.09,48.6-5.41,7-8.87,15.81-12.78,23.73L196,1130.25q-75.5,153.11-151,306.22l-32.91,66.76C9.72,1508.14,20.55,1507.27,22.28,1503.76Z" fill="#7e889f"/><polygon points="2091.21 1553.42 1901.13 1033.98 473.56 1033.98 278.2 1553.42 2091.21 1553.42" fill="#fff"/><path d="M2096.86,1552l-18.93-51.73L2032.46,1376q-27.37-74.82-54.76-149.63l-47.55-129.89q-7.85-21.46-15.71-42.93c-2.38-6.51-4.14-14-7.39-20.18a8.35,8.35,0,0,1-.32-.88c-1.29-3.53-12-.36-10.8,2.89l18.93,51.73q22.74,62.1,45.46,124.2,27.39,74.82,54.77,149.63,23.78,64.95,47.54,129.89l15.72,42.93c2.38,6.51,4.14,14,7.39,20.18a9.25,9.25,0,0,1,.32.88c1.29,3.53,12,.36,10.8-2.89Z" fill="#7e889f"/><path d="M468.41,1033.38q-9.75,25.9-19.49,51.8L402.36,1209l-56.54,150.32-48.69,129.47c-7.87,20.93-17.08,41.81-23.76,63.16-.09.3-.22.59-.33.88-2.17,5.78,8.65,5.65,10.32,1.2l19.49-51.81,46.56-123.81,56.53-150.32q24.36-64.72,48.7-129.46c7.87-20.94,17.07-41.82,23.75-63.17.1-.3.22-.58.33-.88,2.18-5.77-8.64-5.65-10.31-1.19Z" fill="#7e889f"/><path d="M261.57,1311.48q11.32-26.25,22.66-52.5,7-16.21,14-32.42c2.33-5.39,7.89-13,.64-16.85-5.24-2.79-12.37-2.27-18.18-2.45-7.53-.23-17.16,1-22.7,6.78-4,4.09-5.82,11.28-8.09,16.32q-15.42,34.2-30.83,68.41c-2.37,5.27-9.53,15-3.25,19.69,5.32,4,14.49,3.13,20.83,3.29,8.1.21,20.09-1.78,24.53-9.57,2.28-4-8.39-2.59-10,.15-3.24,5.69-12.59,3.91-18.2,3.62-4.08-.21-10.39-1.11-8.76-6.43,1.73-5.63,5-11.17,7.45-16.53l27.18-60.32c2.42-5.36,4.33-12,7.61-16.89,2.7-4,8.54-3.09,12.88-2.92,4,.17,13.25-.44,12.31,5.47-.74,4.7-4.4,10.2-6.26,14.52l-12.93,30q-10.85,25.13-21.68,50.23C249.61,1315.84,260.17,1314.72,261.57,1311.48Z" fill="#7e889f"/><path d="M237.4,1375.93c1.59-3.74,5-8.56,1.66-12.2-4.18-4.49-12.05-3.9-17.67-3.9-12,0-31-.58-37.9,11.47-2,3.44-5,8.79-1.89,12.26,3.9,4.29,11.38,4,16.66,4,6.25,0,12.6.32,18.78-.81,7.06-1.29,16.64-4,20.36-10.78.67-1.22-9.17-.72-10.64,2-4,7.23-16.92,5.53-24.13,5.37-3.52-.08-11.58-.64-11.78-5.72-.09-2.36,2.11-6.28,3.28-8.21,4.26-7,16.48-5.41,23.74-5.26,3.59.08,11.6.54,12,5.63.19,2.55-2.14,5.92-3.1,8.19C226.1,1379.45,236.24,1378.65,237.4,1375.93Z" fill="#7e889f"/><path d="M2189.47,1289.31l-23.73-52.44c-5.41-12-17.58-17-29.8-20-13.2-3.21-27.6-3-41.14-2.44-10.48.43-36.32,3.77-36,19,.06,2.79,1.48,5.44,2.52,8q3,7.33,6,14.68,6.6,16.16,13.19,32.31c4.74,11.61,14.59,17.37,26.45,20.93,15,4.52,31.37,4.44,47,3.8,11.13-.46,42.69-5.77,35.51-23.84-1.38-3.49-12-.23-10.8,2.89,5.75,14.47-18,15.31-26.6,15.31-14,0-27.76.32-41.08-4.7-9.8-3.7-16.18-8.81-20-18.25l-11.43-28c-3-7.3-6.28-14.55-9-22-4.76-13.17,15.58-14.46,23.88-14.5,20.86-.1,51-1.4,61,20.78l23.22,51.31C2180.24,1295.67,2190.81,1292.26,2189.47,1289.31Z" fill="#7e889f"/><ellipse cx="889.83" cy="1276.91" rx="241.63" ry="78.2" fill="#f2f5f9"/><path d="M1365.89,1183.54c53.81-106.88,77.9-225.09,117.95-337.17,19.71-55.15,44.08-107,75.13-156.69A398.66,398.66,0,0,1,1611.66,622c6.54-6.77,60.65-65,67.5-61.34A2783.75,2783.75,0,0,0,1348.42,412c11.49,85.24,37.14,164.52,48.44,250.12,14.83,112.39,7.46,227.68-17.44,338.13-4.26,18.9-59.59,171.14-51.52,177.06C1337.29,1184.15,1354.14,1184.11,1365.89,1183.54Z" fill="#fff"/><path d="M2090.41,642.72l-249.45-5c2.2,108.44,31.08,213.06,41.38,320.93,7,73.43,1.26,154.56-19.31,225.34l36.28.71C1912.15,1155.28,2019.44,834.43,2090.41,642.72Z" fill="#fff"/><path d="M835.33,1306.91c-9.46-19.15-23.26-27.21-36.07-44.31,5.55,3.56,18.86,8.63,21.87,14.28l-18-33.77c-3.59-6.73-6.75-19.77-12.34-24.71,5,2.76,19.8,9.92,21.67,15.61-4.94-15-12.76-28.86-19.86-42.94-6.78-13.45-11.08-27.78-17.62-41.26a192.87,192.87,0,0,0,32.94,35.32,372.86,372.86,0,0,1-24.7-53.08L798,1149.39a469.09,469.09,0,0,1-19.43-55,91.39,91.39,0,0,0,19.45,22.32q-10.47-30.87-18.75-62.41a105,105,0,0,0,16.89,21.79,380.7,380.7,0,0,1-20.2-65.08,101.2,101.2,0,0,0,21.5,25.54q-12.4-30.58-22.22-62.15l25.79,25.34-25.53-65.38A78,78,0,0,0,793.78,953q-10.12-29.85-20.24-59.72a74.84,74.84,0,0,0,17.89,21q-8.17-32.46-16.34-64.92l20.1,23.38q-7.65-27.51-15.32-55c5.3,4.85,11.89,7.77,18.54,10.48A104.32,104.32,0,0,0,783,773a181.18,181.18,0,0,0,22.5,26.56,205.38,205.38,0,0,0-12.3-60.92A77.87,77.87,0,0,0,813.77,760,162.84,162.84,0,0,0,806.41,704a64,64,0,0,0,20.82,22.54C828.7,697,815,672.07,812,643.08a293.89,293.89,0,0,0,25.54,34.62,232.46,232.46,0,0,0-9.45-69.6c7.14,12.34,14.89,25.29,27.44,32a608.67,608.67,0,0,0-2.36-71.58q10.37,14.49,20.74,29,.81-31.81-.16-63.65a84.21,84.21,0,0,0,21.58,33,194.8,194.8,0,0,0-.54-59.53,74.19,74.19,0,0,0,19.64,29.9l2.1-59.74a161.87,161.87,0,0,0,15.2,27.72q4.05-27.54,8.09-55.07a112.07,112.07,0,0,0,15.74,29.16,260.37,260.37,0,0,0,16.55-57.52,78.89,78.89,0,0,0,11.14,32.34c4.83-19.62,7.23-39.51,10.06-59.54q10.77,13.68,20.21,28.33,3-24.66,5.93-49.33A153.38,153.38,0,0,1,1039,394.9q4.83-20.26,7.75-40.92a29,29,0,0,1,12.71,19.87c3-16.06,10.12-30.14,16.87-45a102,102,0,0,0,13.7,29.37c3-8.67,5.52-25.94,11.52-32.73,6.8-7.7,10.47,4.15,17.45,8.9A309.27,309.27,0,0,0,1137,296q4.67,9.81,9.34,19.61l17.28-41.65,8.88,13.74c.74,1.15,1.77,2.45,3.14,2.33,1.09-.1,1.86-1.09,2.49-2L1202,253.81,1212.82,268l16.4-29.07a78.93,78.93,0,0,1,4.88,9.34c1,2.45,3,4.87,5.67,4.81s4.55-2.51,6-4.72L1258.07,230c1.77,4.44,4.43,9.58,9.19,10,3,.25,5.68-1.5,8.07-3.25A140.2,140.2,0,0,0,1291.39,223a2.74,2.74,0,0,1,1.45-.94,2.93,2.93,0,0,1,1.52.35c5.29,2.19,28.7.65,33.91-1.72L922.83,684.79Z" fill="#7e889f"/><path d="M2344.7,677.78c-3.74-63.7-21.87-130.74-51.55-187.25-46.39-88.36-117-163.3-200.82-217.16-75.34-48.41-162-74.05-248.86-92.54q-5.84-1.25-11.68-2.41c-227-45.09-480.35.82-673.07,130.39q-12.9,8.69-25.47,17.85C969.14,446.36,829.88,639.5,808.25,846c-16.52,157.79.41,304.24,30.2,460.8,12.27,15.29,41.59,17.52,63.06,17.52,17.06,0,38.21-7.22,46-18.19-9.75-37.27-11.62-58.64-15.65-93.75-7.51-65.5-5.42-132,4.66-197.1C956.41,886.83,1007,762,1084.13,657.2c57.32-77.94,139.53-143.22,236.63-163.29,106.24-22,203.18,31.15,256.34,123.41a256.54,256.54,0,0,1,16.19,33.31c26.07,65.57,29.17,138.29,21.8,208.46-13.09,124.74-40.64,248-78.16,367.91,9.11,3.59,25.66,7.17,34.77,10.76,51.91-94.69,168.93-385.91,191.41-424.51,35.44-60.86,90.72-121.37,163.29-133.41,159.89-26.54,263.94,155.12,278.53,290,9.1,84.16-2.94,169-15.1,252.16l25.12,1.28c6.58.34,14.23,2.38,20.64.87,23.21-60,39.25-122.51,55.24-184.83C2321.24,920.78,2351.88,799.93,2344.7,677.78Z" fill="#fff"/><g clip-path="url(#a)"><path d="M982.85,701.9c8.27,3.25,17.51,3,26.28,1.58,12.73-2,25.64-6.65,34.29-16.21s11.74-24.9,4.52-35.58C1009.18,594.38,930.59,681.31,982.85,701.9Z" fill="#fcedeb"/><path d="M1200.75,460.06c-52.49-36.24-90.35,46.27-91.34,85,6.21.88,11.25-4.55,16.18-8.44C1141.76,523.83,1262.37,502.62,1200.75,460.06Z" fill="#fcedeb"/><path d="M1026.07,534.69a30.36,30.36,0,0,0,10.16-1.63c18.4-5.88,42-37.75,10.72-44.3-16.58-3.45-28,4.88-33.15,15.37C1007.21,517.44,1010.62,534.2,1026.07,534.69Z" fill="#fcedeb"/><path d="M931.82,709.12c-2.24-8.33-10.57-11-18.12-8.21a27.7,27.7,0,0,0-11,8.05c-7.87,9-1.66,25.76,11.41,24.41,4.31-.45,8.19-2.91,11.29-6C930.21,722.66,933.58,715.67,931.82,709.12Z" fill="#fcedeb"/><path d="M955.36,782.37a9.64,9.64,0,0,1-5.14-.06,11,11,0,0,1-3.62-2.52c-2.46-2.29-4.85-4.78-6.18-7.86a14.25,14.25,0,0,1,.26-11.7c1.48-3,4.73-5.68,8-4.84,1.84.48,5.1-1.08,7.41-.65a18.48,18.48,0,0,1,7.76,3.73C974.78,767.75,967.2,779.93,955.36,782.37Z" fill="#fcedeb"/><path d="M913.09,867.66c-7.74,5.21-14.88,12.26-17.23,21.29-2.13,8.19,0,17.1,4.53,24.26s11.18,12.73,18.35,17.22,15.07,8,23.4,7.72c5.62-.17,11-2.08,16.27-4.13,10.82-4.25,22.07-9.89,27.55-20.14,3-5.69,4-12.28,4-18.73.11-10.59-2.15-21.5-8.33-30.1C965.63,842.73,931.92,855,913.09,867.66Z" fill="#fcedeb"/><path d="M829.92,881.4c.18,6,1.44,12.55,6.26,16A13.94,13.94,0,0,0,848,899.13a25.25,25.25,0,0,0,10.42-6.43c6.16-5.89,10.59-13.93,10.84-22.45s-4.2-17.36-11.87-21.08C836,838.78,829.47,866.6,829.92,881.4Z" fill="#fcedeb"/><path d="M885.13,792.88c3.16-5.55,5-12.2,3.37-18.36-2.34-8.61-12.19-14.37-20.84-12.19-9.24,2.33-14.76,11.53-19.28,19.92l-17.72,32.89c-1.43,2.66-2.78,6.19-.75,8.43,5.86,6.44,22.57-3.23,28.31-6.56C868.71,810.92,879,803.66,885.13,792.88Z" fill="#fcedeb"/><path d="M872.76,638.93c3.93,1.37,8.18,1.46,12.35,1.54,6.86.12,13.87.23,20.42-1.84,6.17-1.94,11.59-5.71,16.75-9.6,6.31-4.75,12.59-10,16.1-17,5.54-11.15,3.08-24.71-2-36.1-3.57-8-8.51-15.72-15.6-21-6.23-4.6-13.75-7.06-21.2-9.19-8.81-2.51-18.1-4.68-27.05-2.74-8,1.73-14.95,6.59-21.31,11.76-7.33,6-14.42,12.82-17.74,21.66-3,8.06-2.62,17.13-.06,25.35C839.07,619.83,855.42,632.86,872.76,638.93Z" fill="#fcedeb"/><path d="M996.21,579a29,29,0,0,0,11.48,21.38,35.19,35.19,0,0,0,14.45,5.71c9.91,1.79,20.75.56,28.93-5.32s12.92-17,9.64-26.49a26.61,26.61,0,0,0-6.15-9.56c-9.82-10.22-24.49-13.53-38.08-10.83C1002.34,556.7,995.14,562.86,996.21,579Z" fill="#fcedeb"/><path d="M836.57,997.25c6,9,18.15,14.45,28.21,10.4,6.23-2.5,10.83-8.18,13.07-14.5s2.35-13.24,1.47-19.89c-2-15.43-15.09-36.68-33.56-28.29C827.55,953.24,826.73,982.5,836.57,997.25Z" fill="#fcedeb"/><path d="M906.74,1003.7a14.62,14.62,0,0,0,3.17,11.72c2.25,2.51,5.42,4,8.49,5.35,3.55,1.6,7.14,3.21,11,3.81s8,.1,11.13-2.24c3.89-2.92,5.42-8.26,4.75-13.08s-3.22-9.19-6.21-13C928.18,982.2,909.49,984.47,906.74,1003.7Z" fill="#fcedeb"/><path d="M830.91,1053.08c4.34,1.42,9.07,1.12,13.52.12,3.43-.77,6.89-2,9.4-4.47s3.88-6.34,2.56-9.6c-1.69-4.17-6.71-5.69-11.1-6.69l-6.13-1.41a26.71,26.71,0,0,0-7.78-1C816.12,1031.15,818.92,1049.16,830.91,1053.08Z" fill="#fcedeb"/><path d="M844,1102.51c-1.18,6.6,2.09,13.45,7.13,17.88s11.59,6.77,18.15,8.15c7.37,1.56,15.34,2,22.18-1.17,10.17-4.67,15.7-17.06,13.52-28-2.93-14.77-18-25.47-32.86-24.95C860.09,1074.82,846,1091.41,844,1102.51Z" fill="#fcedeb"/><path d="M898.05,1171a16,16,0,0,1,10-1.81c5.43,1,9.51,6.33,9.87,11.85.74,11.48-13.94,22.91-24.72,17C881.26,1191.53,888.62,1175.72,898.05,1171Z" fill="#fcedeb"/><path d="M853.33,1258.71a20.57,20.57,0,0,0,16.74,1.06,17.65,17.65,0,0,0,10.8-12.58c3-14.69-16.79-34-31.4-26.19C835.2,1228.61,841.15,1252.42,853.33,1258.71Z" fill="#fcedeb"/><path d="M917.66,1260.51c4.35-4.32,10.32-7.09,16.44-9,12.27-3.88,26.27-4.66,38.09.24s20.65,16.25,19.19,27.8a27.61,27.61,0,0,1-6.65,14,38.24,38.24,0,0,1-16.9,11.53c-12.08,4.07-31.3,1.83-41.8-5.37C912.27,1290.28,904.52,1273.55,917.66,1260.51Z" fill="#fcedeb"/><path d="M1087,466.56c7.83-1.1,15.64-6.58,16.75-14.41.58-4.08-.7-8.19-2.15-12-5.23-13.92-26.81-22.07-36.8-7.72C1053.4,448.79,1068.25,469.2,1087,466.56Z" fill="#fcedeb"/><path d="M1105,410.89c9.21,2.88,19.1,4.54,28.5,2.39,8.9-2,16.75-7.38,23.3-13.74,9.13-8.86,16.2-20.13,18.69-32.6s.06-26.16-7.81-36.15A49.79,49.79,0,0,0,1150,317.22c-19.9-9.64-44.5-9.13-63.76,1.71a67.47,67.47,0,0,0-31.09,39.24c-5.27,17.76,7.48,28.79,21.3,38.62A101.54,101.54,0,0,0,1105,410.89Z" fill="#fcedeb"/><path d="M1202.27,416c2.76,4.75,8.3,7.11,13.62,8.53,8,2.16,16.69,2.87,24.62.36s15-8.63,17.17-16.67c1.34-5,.72-10.41-.86-15.36-5.78-18.1-26.48-18.73-42.07-12.9C1202.83,384.4,1195.92,405.08,1202.27,416Z" fill="#fcedeb"/><path d="M1312.63,448.63c-4.9,5.36-8.21,13.29-5.15,19.88,3.21,6.93,11.86,9.33,19.49,9.66a69.82,69.82,0,0,0,39.59-10.4c4.89-3,9.56-6.92,11.93-12.17a12.73,12.73,0,0,0,1-8.48,13.3,13.3,0,0,0-3-5.2c-4.48-5-11.19-7.55-17.87-8.14C1343.76,432.47,1322.92,437.4,1312.63,448.63Z" fill="#fcedeb"/><path d="M1265.85,313.2c9.46,2,19.09,3.89,28.74,3.3,16.08-1,31-8.78,44.09-18.18,8.16-5.86,16.07-12.71,20.33-21.81s4-20.94-2.85-28.25c-5-5.29-12.49-7.4-19.73-8.11-26.2-2.58-51.12,10.06-75.63,19.7-8.25,3.24-16.68,6.2-24.33,10.69-7.47,4.38-17.15,12.12-19.65,20.89a7.24,7.24,0,0,0,1.2,6.8,11.57,11.57,0,0,0,3.57,2.32C1235.62,307.55,1250.31,309.91,1265.85,313.2Z" fill="#fcedeb"/><path d="M1325.6,371.13c-1.84,2.89-3.64,6-3.72,9.44-.11,4.17,2.46,8.1,5.92,10.44s7.68,3.28,11.84,3.59c23.61,1.76,44.36-15,67.4-20.38,9.82-2.32,20.16-2.6,29.54-6.33s18-12.4,17.1-22.45c-.76-9-8.57-15.69-16.55-19.85a74.55,74.55,0,0,0-53.74-5.34c-15.54,4.3-25.94,13.33-37,24.67A161.61,161.61,0,0,0,1325.6,371.13Z" fill="#fcedeb"/><path d="M1484.91,299c2.87,2.34,5.88,4.69,9.43,5.77,7.44,2.28,15.92-2,19.77-8.71s3.53-15.37.47-22.52-8.57-13-14.66-17.87c-15.91-12.66-40.61-23-61.15-24-8.56-.41-9.44,6.76-6.55,13.74,4,9.62,14.48,18.09,21.67,25.38A386.88,386.88,0,0,0,1484.91,299Z" fill="#fcedeb"/><path d="M1474.05,396.79a11.89,11.89,0,0,0,.47,4.52,12.87,12.87,0,0,0,4.14,5.58c4.49,3.82,10.18,6,16,7.13,5.19,1,10.67,1.16,15.64-.63s9.33-5.81,10.55-10.95c2.73-11.43-8.81-26.7-20.66-27.17C1488.58,374.81,1474.8,385,1474.05,396.79Z" fill="#fcedeb"/><path d="M1646.54,254.32a12,12,0,0,0,.47,4.51,13.05,13.05,0,0,0,4.14,5.59c4.49,3.82,10.18,6,16,7.13,5.18,1,10.67,1.16,15.63-.64s9.33-5.8,10.56-10.94c2.73-11.43-8.82-26.71-20.66-27.17C1661.07,232.34,1647.3,242.5,1646.54,254.32Z" fill="#fcedeb"/><path d="M1493,477.92c22.38-11.66.38-46.83-21-32.08-8,5.51-12.72,12.56-12.05,22.66a10.2,10.2,0,0,0,.55,3,8.52,8.52,0,0,0,2.41,3.15c4.33,3.83,10.3,5.25,16.07,5.6C1483.68,480.55,1488.68,480.14,1493,477.92Z" fill="#fcedeb"/><path d="M1543.22,319.55a38.9,38.9,0,0,0,1.36,17.33c4.7,14,18.63,22.76,32.34,28.34,14.52,5.9,30.35,9.62,45.87,7.44s30.66-11,37.59-25.07c7.57-15.35,4-34.76-6.48-48.28s-27-21.52-43.84-24.4C1578.85,269.59,1547.43,286.73,1543.22,319.55Z" fill="#fcedeb"/><path d="M1548.61,226.26c-2.79,3-4.74,6.91-4.48,11a14.39,14.39,0,0,0,6.12,10.32,27.61,27.61,0,0,0,11.43,4.49,19.34,19.34,0,0,0,8,.13,15,15,0,0,0,5.34-2.64A19.82,19.82,0,0,0,1583,234a18.47,18.47,0,0,0-8.2-15.29C1564.78,212.21,1555.56,218.87,1548.61,226.26Z" fill="#fcedeb"/><path d="M1518,146.75c-10.36,3.87-54,18.9-30.79,33.79A102.22,102.22,0,0,0,1525,195c12.41,2.16,23.92,5.52,36.79,6.35,18,1.15,36.47-.78,52.84-8.29,5.94-2.73,11.65-6.25,15.83-11.27s6.67-11.71,5.58-18.15c-1.84-10.85-12.72-17.66-23.09-21.36C1582.48,131.42,1548.3,135.43,1518,146.75Z" fill="#fcedeb"/><path d="M1548.27,453c-4.3,7.3-7.56,16-5.22,24.16a26.65,26.65,0,0,0,6.25,10.4c13.54,14.76,35.61,18.18,55.58,16.59,16.62-1.32,34.11-6.16,44.92-18.85,4.53-5.33,7.62-11.73,10.21-18.23,1.54-3.86,2.94-7.88,2.93-12,0-4.66-1.79-9.14-3.86-13.31-7-14-18.52-26.73-33.67-30.7C1595.83,403.23,1562.59,428.68,1548.27,453Z" fill="#fcedeb"/><path d="M1560.52,539.67a23.08,23.08,0,0,1,11.3-1.21,25.3,25.3,0,0,1,10,4.71c7.93,5.65,14.48,13.47,17.65,22.67s2.69,19.81-2.2,28.22c-4,6.81-10.45,11.79-17.34,15.6a82.13,82.13,0,0,1-32.9,10,15.24,15.24,0,0,1-6.49-.49c-2.58-.93-4.53-3-6.14-5.26-9.19-12.59-9.13-29.57-2.32-43.16S1545,544.82,1560.52,539.67Z" fill="#fcedeb"/><path d="M1724.2,515.94c3.18,3.34,7.85,4.74,12.34,5.76,11.23,2.54,24.18,3.12,33-4.25,28.29-23.57-23.42-60.48-43.71-30.82C1720.17,494.94,1716.27,507.59,1724.2,515.94Z" fill="#fcedeb"/><path d="M1915.44,497.38c3.17,3.34,7.84,4.74,12.33,5.76,11.23,2.54,24.19,3.12,33-4.25,28.28-23.57-23.43-60.48-43.71-30.83C1911.4,476.38,1907.5,489,1915.44,497.38Z" fill="#fcedeb"/><path d="M1790.57,345.83c-14.54-11.58-34.55-9.12-48,3.14-6.19,5.65-9.91,14.65-13.4,22.09s-3,17.7,3.5,23.28a22.18,22.18,0,0,0,8.22,4.15,43.14,43.14,0,0,0,55.47-39.63,16.27,16.27,0,0,0-1.26-7.89A16,16,0,0,0,1790.57,345.83Z" fill="#fcedeb"/><path d="M1687.72,406c6.46-3,9.79-11.08,7.86-17.91s-8.51-11.89-15.57-12.67a11.57,11.57,0,0,0-4.23.21,29.24,29.24,0,0,0-4.4,2c-4.74,2.17-10.54,2.39-14.29,6-1,.94-1.79,2.41-1.14,3.61,1.33,2.45,5.38.85,7.07,3.57,1.9,3.07.49,8.14,3.8,11.88C1671.54,408,1681.44,408.83,1687.72,406Z" fill="#fcedeb"/><path d="M2023.63,515.83c2.58,6.61,10.51,10.39,17.44,8.85,8-1.77,16-12.84,19.51-19.88a13.25,13.25,0,0,0,1.15-9.77c-1.47-4.59-6.25-7.54-11.05-8.07s-9.59,1-14,2.86a76.61,76.61,0,0,0-8.94,4.55C2022,497.8,2021.47,510.32,2023.63,515.83Z" fill="#fcedeb"/><path d="M1805.75,239.71c-7,3.38-13.81,6.61-21.37,8-8,1.52-16,3.27-23.53,6.59-9.75,4.28-18.43,10.75-27.6,16.08-5.92,3.44-17.75,9.78-16.39,18,.64,3.83,4.08,6.53,7.48,8.41,10.87,6,23.6,7.64,36,8,17.65.52,35.55-1.33,52.15-7.36s31.88-16.46,42-30.91c3.88-5.5,7-11.76,7.52-18.48s-2.2-13.94-7.88-17.55a21.56,21.56,0,0,0-11.2-2.91C1829.81,227.4,1817.63,234,1805.75,239.71Z" fill="#fcedeb"/><path d="M1732.12,218.08c19.23,7.28,41.81,4.68,59.16-6.35,4.74-3,9.19-6.71,12.09-11.52,7.4-12.3,2.44-29.18-8.06-39s-25.1-13.83-39.31-15.87c-19.38-2.78-39.73-2.37-57.8,5.17-8,3.34-12.92,8.8-11,17.91,1.33,6.42,6.24,10.58,9.43,16.09C1705.27,199.51,1715.38,211.74,1732.12,218.08Z" fill="#fcedeb"/><path d="M1739.65,635.86c-2.72,3.16-5.32,7.47-3.59,11.27,1.6,3.51,6,4.57,9.85,5,29.73,3.48,59.93-4.22,86.95-17.09,7.5-3.57,14.9-7.6,21-13.22,6.78-6.22,12-15.41,9.91-24.36-2.57-10.85-14.3-16.49-24.83-20.15-17.25-6-44.38-12.05-55.18,7.64-5,9.18-9.4,17.51-16.91,25.11C1758.08,619,1747.83,626.34,1739.65,635.86Z" fill="#fcedeb"/><path d="M1688.41,640.83c.18-5.44,1.32-11.3,1.93-16.49,1.84-15.47,6-32-.11-47a38.46,38.46,0,0,0-29.55-23.12c-2.31-.33-4.81-.41-6.83.76s-3.29,3.54-4.33,5.75A430.87,430.87,0,0,0,1623,632.87c-3.38,12.62-6.19,25.8-4,38.68a38.6,38.6,0,0,0,12,22c13.1,11.61,39.62,10.84,52.4-1,5-4.65,7.92-11.21,9.26-17.91a33.34,33.34,0,0,0,.66-9.5c-.61-6.87-4.26-13.1-4.86-19.92A34.7,34.7,0,0,1,1688.41,640.83Z" fill="#fcedeb"/><path d="M1679.56,755c-3.39,6.21-6.19,13-6,20.11a3.61,3.61,0,0,0,3.93,4.1c7.63.89,15.21-2.24,21.58-6.52s11.89-9.71,18.07-14.25c11.15-8.2,25.08-14.16,31.28-26.53,1.66-3.33,2.54-7.67.14-10.51-1.47-1.75-3.81-2.46-6-2.91C1715.08,713,1691.76,732.63,1679.56,755Z" fill="#fcedeb"/><path d="M1793.62,708.63a27.23,27.23,0,0,0,20.94-7,16.31,16.31,0,0,0,5-7.69c1.47-5.72-1.73-11.85-6.42-15.44-9.26-7.09-33.29-12.91-40.71-.25C1764.28,692.21,1780.64,707.31,1793.62,708.63Z" fill="#fcedeb"/><path d="M1677.7,877.63c1.7-7.8-.1-27.38-9.3-30.18-3.81-1.16-8-.28-11.57,1.53A34.45,34.45,0,0,0,1641,865.91c-3.32,7.46-3.58,16.85,1.49,23.26,4.79,6.05,13.73,8.12,21,5.48S1676.06,885.18,1677.7,877.63Z" fill="#fcedeb"/><path d="M1708.83,828.14c-.9,3.94-.65,8.31,1.58,11.68a15.14,15.14,0,0,0,9,5.88,45,45,0,0,0,10.94,1c4.51,0,9.28,0,13.15-2.33,5.63-3.39,7.67-11.1,5.75-17.4s-7.06-11.19-12.83-14.35c-4.08-2.23-8.71-3.76-13.34-3.3C1713.56,810.24,1710.67,820.07,1708.83,828.14Z" fill="#fcedeb"/><path d="M1647.84,999.68a11.43,11.43,0,0,0,6.81,7.75,19.79,19.79,0,0,0,18.72-2.95,15.58,15.58,0,0,0,5.24-12c-.13-7.94-8.12-20.37-17.36-15.61C1655.13,980,1646.34,992.84,1647.84,999.68Z" fill="#fcedeb"/><path d="M1890.22,658.3c5.57,5.89,14,8,22.09,8.81,9.73,1,20,.3,28.55-4.37a22.92,22.92,0,0,0,7.58-6.31c4.14-5.61,4.5-13.36,2.37-20-5.36-16.66-26.61-26.9-42.81-19.3C1893.17,624.09,1874.93,642.14,1890.22,658.3Z" fill="#fcedeb"/><path d="M1926.17,581.5a17,17,0,0,0,7.87,6.22,13.45,13.45,0,0,0,16.48-7.93c2-5.73-.2-12.07-3.08-17.42-2-3.83-4.71-7.69-8.74-9.31a11,11,0,0,0-10.64,1.49C1920.9,560.1,1921.29,574.81,1926.17,581.5Z" fill="#fcedeb"/><path d="M1840.77,541.48a30.48,30.48,0,0,0,11.35,2.59c4.5.3,9.27,0,13.09-2.35,5.55-3.45,7.78-10.68,7.13-17.18-1.3-12.88-17.27-29.44-31-22.35C1826.45,509.84,1825.37,534.05,1840.77,541.48Z" fill="#fcedeb"/><path d="M1907.14,403.1c6.25-6.93,12.71-14.41,14.34-23.59a25.8,25.8,0,0,0-7.1-22.41c-5.37-5.34-12.86-8-20.29-9.51-6.34-1.28-13-1.82-19.2.07s-11.58,6.2-16.34,10.75a128.52,128.52,0,0,0-27.84,39c-5.58,12.1-9.29,25.75-6.28,38.73,2.46,10.65,9.36,20,18.11,26.55,7.06,5.3,16,9,24.66,7.11,16.06-3.55,12.2-19.16,15.88-30.84C1887.43,425.05,1897.61,413.69,1907.14,403.1Z" fill="#fcedeb"/><path d="M1993.92,240.46c-12-6.72-26-10.51-39.79-9.32-10.22.88-21.79,6.71-31,11.08-20.21,9.54-38.91,32.07-24.15,54.17,5.07,7.58,13.7,11.86,22,15.65,7.77,3.56,15.67,7,24,8.74a71.52,71.52,0,0,0,35.72-2.22c11.07-3.47,21.61-9.46,28.89-18.5s10.92-21.37,8-32.59C2014.47,255.56,2004.66,246.47,1993.92,240.46Z" fill="#fcedeb"/><path d="M2032.19,314.17a16.8,16.8,0,0,0-4.74,5.75,11.89,11.89,0,0,0-.44,6.94c1.6,7.85,8.34,13.92,15.88,16.67s15.78,2.69,23.77,2.07c7.58-.59,15.4-1.75,21.8-5.85,8.07-5.16,12.84-14.49,14.17-24,.54-3.83.55-7.88-1.06-11.41a20,20,0,0,0-6.69-7.54c-8.9-6.51-24.8-10.93-35.25-5.47-3.67,1.92-6,5.74-9.19,8.37C2044.48,304.69,2038,309,2032.19,314.17Z" fill="#fcedeb"/><path d="M2160.66,374.81c.71,6.22,2.78,12.21,5.13,18s5.18,11.8,9.8,16.15c4,3.8,9.19,6.15,14.38,8.11,11.16,4.23,23,6.95,35,6.55s23.94-4.05,33.24-11.53c17.41-14,22.49-40.19,14.06-60.85s-28.58-35.32-50.41-40c-15.83-3.37-30.77.43-40,13.83C2171.24,340.46,2158.4,354.73,2160.66,374.81Z" fill="#fcedeb"/><path d="M2076.11,429.78c10.27,6,22.92,7.21,34.62,5,5.32-1,10.65-2.77,14.86-6.17,5.26-4.24,8.34-10.69,9.9-17.27,1.64-6.94,1.66-14.62-1.91-20.79-8-13.91-34.75-25-50.55-22.71-15,2.2-25.59,22.22-24.23,36.14C2059.85,414.69,2066.94,424.39,2076.11,429.78Z" fill="#fcedeb"/><path d="M1981.65,434.22a17.57,17.57,0,0,0,1.57,8c1.78,3.49,5.18,5.86,8.65,7.67,4.91,2.56,10.51,4.35,15.94,3.31,5.6-1.07,10.33-5.09,13.27-10s4.28-10.55,5-16.2c.87-6.86.83-14.1-2.16-20.33C2010.18,378.09,1981.73,416.71,1981.65,434.22Z" fill="#fcedeb"/><path d="M1972.68,383c9.93-5.55-2.68-16-10.11-14.68-4.88.88-20.28,10.61-15.08,16.67,1.2,1.4,3.15,1.84,5,2.05A33.93,33.93,0,0,0,1972.68,383Z" fill="#fcedeb"/><path d="M2078.16,502.76c1.25,10.54,11.28,17.54,20.64,22.54,13.7,7.31,28.4,13.47,43.89,14.55s32-3.57,42.41-15.07c5.17-5.7,8.75-13.34,7.8-21s-6.18-14.05-12.19-18.8c-16.5-13-36.09-13.2-55.78-9.85C2108.68,477.91,2075.06,476.68,2078.16,502.76Z" fill="#fcedeb"/><path d="M2234.66,438.64c-3.7-1.09-9-2.34-12.79-1.35-9.49,2.52-16.53,7.25-20.59,16.84-2.87,6.78-1.62,15.86,4.62,19.76a16.26,16.26,0,0,0,8,2.19c5,.18,10-1.17,14.72-2.92,4.27-1.58,8.59-3.64,11.34-7.27,2.87-3.8,3.62-8.78,3.71-13.54a16.42,16.42,0,0,0-1.32-7.81A12.52,12.52,0,0,0,2234.66,438.64Z" fill="#fcedeb"/><path d="M2270.54,530.3c1,3.51,2.22,7.11,4.75,9.74,3.67,3.81,9.31,4.85,14.58,5.41,9.53,1,19.94.91,27.65-4.78,9-6.61,11.62-18.68,13.22-29.7,1.16-8.07,2.1-16.43-.18-24.26-3.93-13.55-18.14-23.27-32.21-22.22s-23.07,11.35-28.85,23.33C2263.36,500.53,2266.87,517.15,2270.54,530.3Z" fill="#fcedeb"/><path d="M2064,576.23a43.48,43.48,0,0,0-6.33,42.61c3.24,8,8.85,14.92,12.47,22.8a63,63,0,0,1,5.07,19.09c.83,7.22.71,14.59,2.37,21.67a44,44,0,0,0,9.42,18.53,36,36,0,0,0,19.15,12c7.48,1.67,15.76.27,21.81-4.43,6.27-4.87,9.59-12.58,12.1-20.12,4.41-13.26,7.13-27,9.58-40.78,2.23-12.5,4.25-25.34,2.05-37.85C2145.16,572.76,2092.16,541.22,2064,576.23Z" fill="#fcedeb"/><path d="M1988.75,548.06c3.25-4,8.92-5.08,14-4.65A31.76,31.76,0,0,1,2029.72,565c3.29,10.49.83,21.79-1.12,32.61-2.62,14.63-4.24,29.8-.79,44.26,1.16,4.85,2.78,10.34,0,14.49-2.42,3.63-7.3,4.66-11.66,4.63a38.73,38.73,0,0,1-26.66-11c-15.11-14.92-12.56-36-5.08-54,2.84-6.82,4.47-12.62,4-20.15C1987.88,567.34,1982.61,555.56,1988.75,548.06Z" fill="#fcedeb"/><path d="M2187,587.92c-3.16,11.39.37,24,7.74,33.26a45.33,45.33,0,0,0,79.61-18.08c4.37-18.94-4.69-40.14-21.81-49.54-18.5-10.15-30-2.65-45,9C2198.72,569.5,2190.14,576.64,2187,587.92Z" fill="#fcedeb"/><path d="M2181.61,698.94a16.27,16.27,0,0,0,15.67,4.07,19.57,19.57,0,0,0,12.38-10.81c2.07-4.55,2.45-10,.2-14.51a15,15,0,0,0-14.23-7.83C2183.58,670.73,2172.19,689.18,2181.61,698.94Z" fill="#fcedeb"/><path d="M2209.54,716.76c6.1-7.44,14.3-14,23.88-14.72a13.43,13.43,0,0,1,5.17.47c5.95,2,8.23,9.19,8.5,15.45.69,16.22-6.44,32.15-17.31,44.21s-25.21,20.55-40.21,26.75c-5,2.05-10.32,3.9-15.61,3-17.15-3-26.87-34.78-6.95-40.43,8.25-2.34,14.76-1.4,21.74-7.61C2197.3,736.26,2202.37,725.52,2209.54,716.76Z" fill="#fcedeb"/><path d="M2295.34,704.16c7.75-1.72,13.73-8.64,15.61-16.35a22.73,22.73,0,0,0-3.28-18.59c-8.73-12-27.79-8.27-31,6.19C2273.85,688.51,2277.33,708.15,2295.34,704.16Z" fill="#fcedeb"/><path d="M2275.64,767.28c1.06,3.5,4.21,6,7.45,7.67a28.82,28.82,0,0,0,18.61,3.12,21.73,21.73,0,0,0,15.12-10.82,26.15,26.15,0,0,0,2.6-9.75c.38-4.29,0-8.79-2-12.57-2.86-5.23-8.54-8.28-14.22-10.08-8.15-2.59-15.71-1-19.33,7C2280.76,748.59,2273.4,759.85,2275.64,767.28Z" fill="#fcedeb"/><path d="M2226.32,805.94a17.85,17.85,0,0,0-4,6.18c-1.6,4.77.28,10.32,4.06,13.64a17.79,17.79,0,0,0,14.12,3.82c5.75-.81,11.28-4.26,13.71-9.54,3.28-7.15-.94-15.5-7.23-19.53C2239.84,795.93,2231.52,800.28,2226.32,805.94Z" fill="#fcedeb"/><path d="M2280.81,855.85c-.32,5.37.28,10.93,2.76,15.71,2.56,4.94,6.91,8.69,11.43,11.92a97,97,0,0,0,23.35,12.26c8.52,3.07,18.05,4.91,26.53,1.77,10.52-3.89,17.13-14.74,19.32-25.74a52.57,52.57,0,0,0-13-45.46c-9-9.57-31.91-22.95-44.6-13.5C2293.16,822.84,2281.83,838.78,2280.81,855.85Z" fill="#fcedeb"/><path d="M2210.08,912.73c1.47-4.86,2.52-10.16,6.11-13.75,2.63-2.62,6.27-3.93,9.84-4.91,6.95-1.9,14.48-2.81,21.26-.4,8.66,3.08,14.78,11.26,17.35,20.08s2,18.25.7,27.34a131.26,131.26,0,0,1-10.61,36.52,37.44,37.44,0,0,1-5.89,9.54c-6.68,7.4-18,9.62-27.54,6.67s-17.22-10.44-21.93-19.23a37.64,37.64,0,0,1-4.57-14.49C2193.28,942.33,2205.24,928.7,2210.08,912.73Z" fill="#fcedeb"/><path d="M2247.5,1055.77a8.57,8.57,0,0,0-.21,4.11,7.74,7.74,0,0,0,1.89,3.12,19.38,19.38,0,0,0,32.25-5.52,15.25,15.25,0,0,0,.68-10.53,17,17,0,0,0-3.47-5.72C2264.36,1024.92,2251.14,1040.34,2247.5,1055.77Z" fill="#fcedeb"/></g><path d="M843,1304.72c-13.12-14.61-26.85-28.62-38.73-44.31l-9.25,4.95c6.78,4.14,16.7,6.72,21.14,13.72,1.94,3.07,12.14-.35,10.39-3.64-6.28-11.81-13.22-23.47-18.87-35.59-3.65-7.83-5.5-17.39-11.85-23.64l-9.26,5c6.23,3.39,17.53,7.38,20.53,14.3,1.7,3.92,12.16,1.12,10.8-2.9-5-14.66-12.4-28.15-19.34-41.93s-11.55-28.41-18.14-42.27L770,1152a202.38,202.38,0,0,0,32.94,35.32c2.75,2.29,12.55.19,10-4.38a383.23,383.23,0,0,1-24.29-52.33l-10.39,3.63L793,1151.58c2.14,2.51,12,.18,10.4-3.64A485.5,485.5,0,0,1,784,1093l-10.4,3.64A97,97,0,0,0,793.05,1119c2.28,1.92,11.87.71,10.4-3.64q-10.44-30.88-18.74-62.41l-10.4,3.64a112.86,112.86,0,0,0,16.88,21.79c2.2,2.22,12,.38,10.4-3.64a394,394,0,0,1-20.2-65.07l-10.4,3.64a107,107,0,0,0,21.51,25.53c2.22,1.93,12.09.57,10.4-3.63q-12.37-30.63-22.23-62.16l-10.4,3.64L796.06,1002c2.22,2.17,12,.44,10.4-3.64L780.93,933l-10.39,3.64a85.75,85.75,0,0,0,19,19.19c2.24,1.67,10.93-.45,9.66-4.2l-20.24-59.73-10.39,3.64a79.52,79.52,0,0,0,17.88,21c2.4,2,11.53.84,10.4-3.64q-8.18-32.46-16.34-64.91l-10.39,3.63L790.2,875c2.21,2.57,11.53.43,10.4-3.64q-7.67-27.5-15.32-55L774.88,820c5.77,5,12.27,8.16,19.27,11,2.3.94,9.69.39,9.68-3.36A109.42,109.42,0,0,0,788,770.76l-10,4.38a192,192,0,0,0,22.5,26.56c2.69,2.65,10.62.59,10.39-3.64a212.17,212.17,0,0,0-12.3-60.92l-10.39,3.64a84.72,84.72,0,0,0,21.33,22c2.21,1.6,9.55,0,9.68-3.36a170.81,170.81,0,0,0-7.38-56.92l-10.4,3.64A69.09,69.09,0,0,0,823,729.25c2.24,1.53,9.55,0,9.68-3.36,1.08-29.13-12-55.7-15.21-84.26l-10.39,3.64a309.45,309.45,0,0,0,25.54,34.62c2,2.4,10.37.83,10.42-2.79a242.09,242.09,0,0,0-9.48-70.44l-10.39,3.63c7.33,12.65,15.15,25.18,28.17,32.62,2.29,1.31,9.6.17,9.68-3.36a636.75,636.75,0,0,0-2.38-72.43l-10.4,3.64,20.75,29c1.9,2.66,10.33.65,10.41-2.79q.78-32.25-.18-64.5l-10.8,2.9a89.6,89.6,0,0,0,22,33.75c2.41,2.31,9.9,1,10.42-2.79a205,205,0,0,0-.56-60.38l-10.8,2.9a79.46,79.46,0,0,0,20,30.64c2.24,2.12,10.28,1.06,10.42-2.79l2.1-59.74L911.17,479a178.7,178.7,0,0,0,15.6,28.46c2,2.93,9.94.47,10.42-2.79q4-27.54,8.09-55.07l-10.82,2a122.48,122.48,0,0,0,16.14,29.91c1.9,2.58,8.94.81,10.07-1.93a274,274,0,0,0,16.9-58.38l-10.82,2.05a85.08,85.08,0,0,0,11.54,33.08c1.92,3.23,9.69.21,10.42-2.79C993.43,434,996,414,998.77,394l-10.41,2.8q10.73,13.71,20.21,28.33c1.89,2.92,10,.47,10.41-2.8q3-24.66,5.93-49.33l-10.42,2.79A164.2,164.2,0,0,1,1034,397.09c2.25,2.92,9.65.47,10.42-2.79q4.79-20.3,7.75-40.92l-9.68,3.36a28,28,0,0,1,11.57,18.56c.76,4.19,10.18,1.16,10.83-2.05,3.13-15.59,10-29.79,16.51-44.17L1071,330.27a111.48,111.48,0,0,0,14.1,30.11c2.18,3.27,9.44.13,10.42-2.79,2.78-8.27,4-17,7.31-25.15.44-1.08,2.8-4.24,2.73-5.25,0-.52-1.71-1.74-1.32-.6.14.4,1.62,1.46,2,1.83,2.9,3,5.23,6.16,8.59,8.7,2.4,1.81,8-.05,9.33-2.5a332.84,332.84,0,0,0,18.35-39.27l-10.82,2L1141,317c1.61,3.38,9.17,1.94,10.47-1.19l17.28-41.65-10.06,1.94c4.82,7.46,11.74,24.07,22.82,14.26,4.64-4.11,8-11.13,11.56-16.2l14-20.1L1197,256l10.84,14.22c2.1,2.75,8.61.64,10.06-1.93q8.2-14.53,16.4-29.07l-10.06,1.93c2.91,4.84,4.74,13,10.78,14.86s11.94-2,15.38-6.69c4.13-5.65,7.81-11.66,11.7-17.47-1,.74-1.91,1.49-2.86,2.24l.93-.46-6.47.26c1.19.85,1.91,3.68,2.87,4.84a12.67,12.67,0,0,0,4.76,3.67c3.43,1.47,7.45,1.05,10.88-.18,9.8-3.51,15.64-12.84,24.06-18.28l-6.67,1.29c12.46,2.87,28.86,2.83,40.89-2,1.8-.72,4.1-2.63,2.78-4.69s-5.55-1-7.2-.31c-3.84,1.55-9.71,1.56-14,1.8a55.47,55.47,0,0,1-14.4-.72c-7.68-1.58-11.45,3.72-16.78,8.42-2.56,2.26-7.1,7.49-10.39,8.22-4.5,1-5.32-5.51-8.23-7.57-1.61-1.14-4.84-.52-6.47.26-5.45,2.65-8.45,9.67-11.7,14.53-1.23,1.84-3.06,3.83-4,5.85q-1.59,1.89.68-.13l-1.25-2a26.22,26.22,0,0,0-1.52-3.27c-1.16-2.32-2.42-4.6-3.76-6.82-1.8-3-8.74-.42-10.06,1.93l-16.4,29.07,10.06-1.93L1207,251.62c-2.22-2.91-8.4-.45-10.06,1.93L1185,270.64l-5.61,8c-1.29,1.85-4.07,7.88-5.94,8.8l5.46-.64c-1.81-.42-3.73-5-4.57-6.29l-5.7-8.83c-1.76-2.71-9-.69-10.07,1.93L1141.3,315.3l10.47-1.19q-4.66-9.8-9.34-19.61c-2-4.09-9.53-1.25-10.82,2.05A317.81,317.81,0,0,1,1114,334.1l9.33-2.5c-4.34-3.29-6.86-9.28-12.1-11.3s-10.86.57-14.34,4.49c-7.92,8.92-8.56,23.12-12.21,34l10.41-2.79a105.82,105.82,0,0,1-13.29-28.62c-1.12-3.81-9.25-1.49-10.46,1.18-6.8,14.93-14,29.71-17.23,45.89l10.83-2.05A32.29,32.29,0,0,0,1051,351.22c-2.43-1.7-9.2.06-9.68,3.36q-3,20.64-7.75,40.92l10.41-2.79a164.2,164.2,0,0,0-19.54-21.29c-2.41-2.2-10-1-10.42,2.79q-3,24.66-5.92,49.34l10.42-2.8q-9.49-14.61-20.21-28.33c-2.14-2.73-9.94-.62-10.42,2.79-2.8,20-5.34,39.94-10.07,59.54L988.28,452a81.22,81.22,0,0,1-10.73-31.59c-.52-4.12-10.26-1.21-10.82,2.05a265.75,265.75,0,0,1-16.2,56.65l10.06-1.93a116.17,116.17,0,0,1-15.33-28.42c-1.42-3.84-10.29-1.54-10.82,2q-4.05,27.54-8.09,55.07l10.41-2.79a169.82,169.82,0,0,1-14.79-27c-1.54-3.51-10.69-1.77-10.82,2.05l-2.1,59.74,10.41-2.79a75.46,75.46,0,0,1-19.23-29.16c-1.47-4-11.47-1.35-10.8,2.9a199,199,0,0,1,.52,58.68l10.41-2.79a85.66,85.66,0,0,1-21.17-32.27c-1.56-4.23-10.92-1.25-10.8,2.9q.92,31.39.14,62.8L879,595.34l-20.75-29c-2.24-3.13-10.75-.25-10.39,3.64a620.75,620.75,0,0,1,2.34,70.73l9.68-3.36c-12.38-7.07-19.75-19.49-26.7-31.48-1.79-3.08-11.5-.16-10.4,3.64a236.56,236.56,0,0,1,9.43,68.75l10.42-2.79A309.45,309.45,0,0,1,817,640.89c-2.06-3.24-10.82-.19-10.4,3.64,3.11,27.92,16.23,54.11,15.16,82.57l9.68-3.36a65.25,65.25,0,0,1-20.08-22c-1.76-3.09-11.56-.14-10.4,3.64a165.76,165.76,0,0,1,7.35,55.22l9.68-3.36a79.87,79.87,0,0,1-19.86-20.88c-1.94-2.91-11.75-.11-10.4,3.64A212.24,212.24,0,0,1,800.07,801l10.4-3.64A192,192,0,0,1,788,770.76c-2.26-3.22-12.48.24-10,4.38a104.65,104.65,0,0,1,15,53.75l9.68-3.36c-6.35-2.62-12.55-5.4-17.8-9.91-2.35-2-11.63-.77-10.4,3.64q7.66,27.5,15.32,55l10.4-3.64-20.1-23.37c-2.24-2.6-11.43-.46-10.4,3.64q8.17,32.46,16.34,64.92l10.39-3.64a79.52,79.52,0,0,1-17.88-21c-1.8-3-11.67-.11-10.4,3.63l20.24,59.73,9.66-4.2a80.67,80.67,0,0,1-17.51-18.06c-2-2.82-11.86-.11-10.4,3.63l25.53,65.38,10.39-3.63-25.79-25.34c-2.27-2.24-11.71-.58-10.39,3.63q9.84,31.53,22.22,62.16l10.4-3.64A106.9,106.9,0,0,1,781,1008.87c-1.88-3.11-11.23-.21-10.39,3.64a393.36,393.36,0,0,0,20.19,65.07l10.4-3.63a112.93,112.93,0,0,1-16.88-21.8c-1.83-3.07-11.41-.19-10.4,3.64q8.31,31.53,18.75,62.41l10.39-3.64a97,97,0,0,1-19.44-22.31c-1.9-3-11.5-.2-10.4,3.63a488.37,488.37,0,0,0,19.43,55L803,1147.2l-14.78-17.34c-2.15-2.52-11.88-.28-10.4,3.64a393.35,393.35,0,0,0,25.1,53.82l10-4.38A202.09,202.09,0,0,1,780,1147.61c-2.06-2.77-12.09.08-10.39,3.64,6.58,13.86,11.22,28.56,18.13,42.27s14.38,27.28,19.35,41.94l10.8-2.9c-3.67-8.45-15.24-12.79-22.81-16.92-2.45-1.33-12.67,1.59-9.25,4.95,6.25,6.16,7.86,15.73,11.63,23.38,5.72,11.62,12.19,22.93,18.28,34.36l10.4-3.64c-4.79-7.55-15.33-10.4-22.61-14.85-2.53-1.54-12.2,1.07-9.26,5,11.88,15.69,25.61,29.7,38.73,44.31,2.71,3,13-1,10-4.38Z" fill="#7e889f"/><path d="M952.63,1304.8C924.19,1189.13,928,1067,955.31,951.46a842.47,842.47,0,0,1,59.82-169.63c25.21-52.65,55.81-103.8,93.4-148.6,71.88-85.66,188-161.2,304.62-135.62,52,11.41,98,41.88,131.79,82.74,42.12,51,61.87,114.54,66.85,179.78,5.31,69.6-5.55,140.21-17.27,208.66a1945.24,1945.24,0,0,1-47.82,207.93q-7.31,25.47-15.22,50.77c-.47,1.48,1.17,2.54,2.28,3,11.37,4.27,23.4,6.48,34.77,10.75,2.7,1,6.9-.41,8.29-3,36.51-66.78,65.55-138,95.74-207.8,28.65-66.22,55.75-133.3,86.52-198.58,37.86-80.3,113.52-156.86,208.44-150.55,90.81,6,157.3,82.4,194.05,159.47,18.67,39.15,31.8,81.4,37.25,124.48,8.68,68.58,1.9,138.36-7.25,206.51-2.27,16.92-4.72,33.81-7.19,50.7-.29,2,1.85,3.11,3.52,3.2,13.49.69,27.29,2.65,40.76,2.7,3.5,0,8.78,0,11.4-2.84,1.93-2.1,2.81-6.52,3.78-9.12q2.05-5.48,4-11c9.68-26.91,18.13-54.25,25.91-81.77,15.95-56.44,30.38-113.45,43.9-170.51,26.3-111,47-229,23.72-342.46-20.84-101.56-76-192.66-149.85-264.67-35.79-34.91-76-65.87-119.61-90.42-46.63-26.26-97.1-45.07-148.52-59.52-98.74-27.74-200.31-41.62-302.91-37.45a938.16,938.16,0,0,0-294.23,59.9,844.32,844.32,0,0,0-254.47,152.13C998.58,434.34,935.13,510,887.14,594.41A710.45,710.45,0,0,0,828.7,726.07c-15.42,47.53-24.21,96.21-28.28,146-9.57,117.24-.33,235,17.6,351,4.4,28.5,9.32,56.92,14.56,85.28.86,4.63,11.69,1.92,10.8-2.89-20.66-111.86-36.12-225.09-35.94-339.05.08-53.42,2.49-107.64,11.83-160.32a624.87,624.87,0,0,1,40-133.71c36.79-87.14,90.94-166.59,155.52-235.48C1080,367.38,1156.28,308.26,1241,264.46c86.59-44.77,180.88-74.4,277.23-88.84,95.82-14.36,194-14,289.49,2.4,101.43,17.41,204.8,47.32,290.89,105.23,80.08,53.85,148,127.67,191.79,213.89,23.57,46.35,38.74,97.2,45.65,148.68,7.51,55.9,4.64,113.13-2.63,168.89-7.36,56.37-19.73,111.94-33.36,167.08-13.44,54.35-27,108.82-42.89,162.5-7.93,26.78-16.69,53.3-26.71,79.36l5.67-3.2c-7.28,1.21-14.73-.6-22-1s-14.89-.76-22.33-1.14l3.51,3.21c10.38-71,20.62-142.6,17.83-214.56-1.91-49.05-11-96.54-29.07-142.25-31.88-80.6-91.78-163.56-180.22-185.62a187.86,187.86,0,0,0-139.71,20.11c-45.36,26.46-81.81,69.64-107.06,115.23-11.58,20.91-20.58,43.47-30.15,65.33-16.3,37.27-32.26,74.69-48.34,112.06-32.83,76.29-64.83,153.38-102.51,227.45-3.08,6.06-6.22,12.07-9.48,18l8.3-3c-11.37-4.27-23.4-6.48-34.77-10.75l2.28,3a2043.45,2043.45,0,0,0,54.78-213.85q10.81-54.82,18.19-110.27c4.67-35.35,8.62-70.84,8.66-106.54.07-67.42-12.68-136.28-49.75-193.62-29.61-45.8-72.58-83-123.87-102.35-111.48-42-232.46,13.79-313.74,91.06-43.22,41.09-77.87,90.61-107.06,142.41a837.86,837.86,0,0,0-71.32,167.71c-35.49,116.87-46.85,242.63-25.6,363.29q3.84,21.83,9.15,43.33c1.15,4.65,12,1.81,10.81-2.89Z" fill="#7e889f"/><path d="M1359.28,511.37c3.54,5.6,5.34,12.45,7.16,18.75,2.9,10,5.23,20.16,7.4,30.33,4.93,23,9,46.23,12.65,69.47,10,62.66,14.09,125.71,11.34,189.15a1076.88,1076.88,0,0,1-11.45,115.74c-4.27,28.07-8.49,56.85-16.17,84.23-9.39,33.46-20.07,66.59-30.26,99.82-5.2,17-10.48,33.92-15.42,51-.65,2.25-2.73,6.45-2,8.89,1.43,5,13.89,7,17.88,7.65,8.22,1.39,16.65,1.24,25,.87,2-.09,4.71-1.29,5.67-3.21,32.23-64.24,54-132.94,74.85-201.53,21-69.07,41-138.74,70.61-204.75,16.49-36.81,36-72.35,59.75-105,4-5.45-6.23-6.52-8.94-2.8-42.14,57.91-70.75,123.76-93.9,191.2-23.7,69-42.21,139.73-66,208.74-13.3,38.61-28.31,76.65-46.63,113.18l5.67-3.21c-7.37.33-14.9.47-22.19-.87-3-.55-6.54-2.79-9.4-3-1-.07-2.07-1.55-1.49.64,0-.16.1-.37.09-.53,0-3.18,2-7.34,2.9-10.33,4.47-15.21,9.15-30.35,13.79-45.51,10.25-33.47,20.92-66.85,30.51-100.52,7.08-24.84,11-50.88,15.15-76.34a1093.1,1093.1,0,0,0,12.41-114.29,934.17,934.17,0,0,0-9.34-192c-3.85-25.18-8.12-50.31-13.31-75.24-2.35-11.24-4.85-22.47-8-33.52-2.08-7.3-4.25-15.08-8.35-21.55-2.41-3.81-12.79.1-9.93,4.61Z" fill="#7e889f"/><path d="M1842,734.73c11.35,61.09,22.64,122.24,30.34,183.92,7.16,57.37,9.87,114.57,3.49,172.16a561,561,0,0,1-18.26,93.68c-.55,1.88,2.06,3.09,3.49,3.11l36.28.71c2.36,0,6-.69,7.07-3.18,6.59-15.18,11.75-31.09,17.31-46.67q16-44.79,31.58-89.72,37.89-108.6,75.34-217.34,15.22-44,30.54-88c2-5.58-8.8-5-10.23-.88-21,60-41.67,120.2-62.48,180.31-23.71,68.52-47.36,137.08-71.64,205.4-6.65,18.69-12.75,37.83-20.65,56l7.06-3.18-36.28-.71,3.5,3.11c15.79-54.81,22.52-112.14,22.14-169.1-.39-59.91-9.46-119.72-19.23-178.71-5.74-34.69-12.14-69.26-18.57-103.83-.84-4.53-11.68-1.83-10.8,2.89Z" fill="#7e889f"/><path d="M2447,345.45q-20.23,38.55-44.11,75c-2.79,4.26,5.46,4.1,7.4,3.23,28.41-12.72,58.3-21.75,86.71-34.47,6.79-3,.71-8-4.58-5.62-28.41,12.72-58.3,21.76-86.71,34.48l7.4,3.23q23.87-36.4,44.11-75c2.67-5.08-8.23-4.64-10.22-.84Z" fill="#7e889f"/><path d="M2412.33,422.59c9.81-26,8.46-54.3,13.84-81.27.78-3.88-10.07-2.13-10.78,1.43-5.38,27-4,55.25-13.84,81.26-1.26,3.34,9.47,2.06,10.78-1.42Z" fill="#7e889f"/><path d="M2404.75,426c30.16-2.39,59.18-10.88,88.93-15.77,1.53-.25,6.11-1.28,6.21-3.4s-3-2.1-4.54-1.85c-28.81,4.73-57,13.23-86.22,15.54-1.92.15-6.3.67-7.17,2.81s.68,2.83,2.79,2.67Z" fill="#7e889f"/><path d="M2411.31,422.34c24.65-16.86,47.27-37.31,69.24-57.49,4.52-4.16-6.11-3.88-8.61-1.58-21.35,19.61-43.31,39.71-67.27,56.1-6,4.11,3.34,5.23,6.64,3Z" fill="#7e889f"/><path d="M2301.2,482.73a870.47,870.47,0,0,0,109-59c6.12-3.9-3.35-4.82-6.58-2.76a850.77,850.77,0,0,1-106.58,57.82c-6.87,3.11-.54,6.07,4.13,4Z" fill="#7e889f"/><path d="M1563.75,1259c4-4.38,7.81-9,11.82-13.61,2.37-2.73,15.75-25.67,14.27-25.83-20.61-2.14-37.22-3.5-56.24-10.83-2-.76-16.25,46.23-16.2,51.11a5.21,5.21,0,0,0,1,3.6c1.55,1.68,4.52,1.21,6.7.27,10.37-4.52,14.92-15.44,22.36-23.41l-6.81,19.61c-.88,2.54-1.78,5.2-1.34,7.84s2.66,5.24,5.59,5.37c2.22.1,4.21-1.16,5.94-2.42A87.41,87.41,0,0,0,1563.75,1259Z" fill="#7e889f"/><path d="M1354.82,1209c4.09-4.39,7.88-9,11.92-13.62,2.38-2.73,15.87-25.67,14.38-25.83-20.77-2.14-37.52-3.5-56.69-10.83-2-.76-16.39,46.23-16.33,51.11a5.11,5.11,0,0,0,1,3.6c1.57,1.68,4.56,1.21,6.76.27,10.45-4.52,15-15.44,22.54-23.41l-6.87,19.61c-.89,2.54-1.79,5.2-1.35,7.84a6.36,6.36,0,0,0,5.64,5.37c2.24.1,4.24-1.16,6-2.42A88.76,88.76,0,0,0,1354.82,1209Z" fill="#7e889f"/><path d="M1894.07,1207.83c3.24-4.74,6.2-9.68,9.38-14.65,1.87-2.93,11.72-27,10.36-27-19-.21-34.25,0-52.32-5.53-1.87-.57-10.09,47.51-9.55,52.36a5.56,5.56,0,0,0,1.29,3.49c1.59,1.52,4.25.78,6.13-.36,9-5.46,12-16.75,18-25.37l-4.21,20.14c-.54,2.61-1.09,5.34-.41,7.92s3,5,5.64,4.83c2-.11,3.7-1.56,5.16-3A83.89,83.89,0,0,0,1894.07,1207.83Z" fill="#7e889f"/><path d="M2226.32,1255.89c3.68-5.14,7-10.45,10.58-15.81,2.11-3.17,12.71-28.46,11-28.31-23.14,2.11-41.74,4.16-64.07.85-2.31-.35-9.54,48.78-8.59,53.57a4.8,4.8,0,0,0,1.77,3.34c2,1.32,5.22.26,7.45-1.11,10.63-6.56,13.67-18.24,20.43-27.59q-2,10.34-4,20.67c-.51,2.68-1,5.48,0,8a6.8,6.8,0,0,0,7.15,4.14c2.47-.35,4.43-2,6.12-3.6A95.21,95.21,0,0,0,2226.32,1255.89Z" fill="#7e889f"/><path d="M521.24,1333.76c-18.76-18.7-32.58-42.92-28.19-70.1a85.33,85.33,0,0,1,13.45-33.16c21.94-33.23,60.91-52.93,97.35-65.78s74.43-20.22,112.58-25.11c2.17-.28,5.86-1.58,6-4.28s-2.74-3.67-4.95-3.39c-60.9,7.81-125.35,21.12-177.49,55.33-26.22,17.2-50.45,42-57.16,73.63-6.27,29.58,7.87,57,28.53,77.55,3.35,3.34,13.58-1,9.9-4.69Z" fill="#7e889f"/><path d="M1019.79,1424.63a974.19,974.19,0,0,1-198.4,6.13c-57.95-4-115.92-13.11-171.6-30-25.92-7.84-51.34-17.53-75.42-30-3.2-1.65-13.1,3-8.58,5.3,46,23.73,96.69,38,147.32,47.62,63.54,12.09,128.54,16.7,193.16,15.47a972.81,972.81,0,0,0,112.08-8.48c1.77-.24,6-1.38,6.12-3.73s-2.91-2.64-4.68-2.4Z" fill="#7e889f"/><path d="M1162.51,1161.1c28.33,11,56.29,24.42,80.26,43.31,17.64,13.91,34,31.65,40.36,53.7,12.62,43.55-22,79.74-55.57,101.61-29.55,19.23-62.88,32.41-96.48,42.65-.72.22-5.58,1.51-5,2.86s5,.21,5.78,0c31.2-9.5,62-21.16,90.38-37.31,21.18-12,41.78-26.79,56.72-46.28,12.09-15.78,19.59-35.14,17.26-55.22-2.55-22.08-16.09-41-31.91-55.82-25.84-24.25-58.82-40.33-91.56-53-2.06-.8-4.92.08-6.91.79-.38.14-4.81,2.17-3.3,2.75Z" fill="#7e889f"/><path d="M760.92,1376c-53-7.41-108.15-18.5-155.91-43.58-25-13.1-60.86-38.31-48.69-71.51,9.66-26.36,40-41.65,64-52.14,1.65-.72,2.88-1.39,1.4-2.52s-6.23.88-7.53,1.45c-31.62,13.84-89.09,45.78-65.71,88.77,8,14.68,22.24,25.44,36.29,33.88,20.12,12.09,42.33,20.57,64.67,27.55,33.42,10.45,67.93,17.23,102.58,22.08a13.78,13.78,0,0,0,7.53-1.45c.71-.36,3.85-2.19,1.4-2.53Z" fill="#7e889f"/><path d="M998.51,1176.33c53.85,3.16,108.26,14.27,156.83,38.38,15.62,7.75,30.86,16.83,44.23,28.06,8.4,7.06,17.44,15.45,22.16,25.58,10.7,23-17.34,45.94-34.13,56.49-39.5,24.84-87.84,36.46-133.22,44.69-72.06,13.07-146,16.23-219,12.38-4.55-.23-11.32,6.4-4,6.78,68.7,3.62,138.13,1.08,206.12-9.78,49.86-8,101.52-19.61,146.24-43.93,14.7-8,29.18-17.72,39.65-31,6.91-8.76,13.12-21,11.19-32.51-1.6-9.6-9.4-18.28-16-24.91-11.76-11.85-25.8-21.5-40.24-29.77-53.1-30.38-115.19-43.71-175.76-47.26-4.56-.26-11.33,6.35-4,6.78Z" fill="#7e889f"/><path d="M971.11,1120.51c44.12-1.23,88.81,6.73,131.32,18.09,3.32.88,12.66-4.11,6.66-5.71-43.26-11.56-88.83-19.57-133.73-18.32-2,.06-6.28.7-7.14,2.91s.7,3.09,2.89,3Z" fill="#7e889f"/></svg>